<?xml version="1.0" standalone="no"?><!DOCTYPE svg PUBLIC "-//W3C//DTD SVG 1.1//EN"
        "http://www.w3.org/Graphics/SVG/1.1/DTD/svg11.dtd">
<svg t="1633841051816" class="icon" viewBox="0 0 1024 1024" version="1.1" xmlns="http://www.w3.org/2000/svg" p-id="3159"
     xmlns:xlink="http://www.w3.org/1999/xlink" width="30" height="30">
    <defs>
        <style type="text/css"></style>
    </defs>
    <path d="M519.1 0C269.7 0 67.6 205.6 67.6 458.5c0 94.2 23.2 172.5 76.1 254.6C248.2 887.2 451.6 1024 519.6 1024s270.9-137.6 375.9-310.9c52-82.1 76.1-160.4 76.1-254.6C970.7 205.6 768.6 0 519.1 0z m0 828.3c-207.7 0-376.3-168.6-376.3-376.3 0-207.7 168.6-376.3 376.3-376.3 207.7 0 376.3 168.6 376.3 376.3 0.1 207.7-168.5 376.3-376.3 376.3z m0 0"
          fill="#ec407a" p-id="3160"></path>
    <path d="M520.3 451.1m-376.9 0a376.9 376.9 0 1 0 753.8 0 376.9 376.9 0 1 0-753.8 0Z" fill="#FFFFFF"
          p-id="3161"></path>
    <path d="M520.3 581.4c-13.3 0-25.6-6.5-33.3-17.2h-16.6c-13.2 0-24-10.8-24-24s10.8-24 24-24H487c7.7-10.7 20-17.2 33.3-17.2 13.3 0 25.6 6.5 33.3 17.2h16.6c13.3 0 24 10.8 24 24s-10.8 24-24 24h-16.6c-7.7 10.7-20 17.2-33.3 17.2zM470.4 534c-3.4 0-6.2 2.8-6.2 6.2 0 3.4 2.8 6.2 6.2 6.2h26.8l2.5 4.7c4.1 7.7 12 12.5 20.5 12.5s16.4-4.8 20.5-12.5l2.5-4.7H570c3.4 0 6.2-2.8 6.2-6.2 0-3.4-2.8-6.2-6.2-6.2h-26.8l-2.5-4.7c-4.1-7.7-12-12.4-20.5-12.4s-16.4 4.8-20.5 12.4l-2.5 4.7h-26.8z"
          fill="#ec407a" p-id="3162"></path>
    <path d="M520.3 663C403.2 663 308 567.7 308 450.7s95.2-212.3 212.3-212.3 212.3 95.2 212.3 212.3S637.3 663 520.3 663z m0-384.7c-95 0-172.4 77.3-172.4 172.4S425.2 623 520.3 623c95 0 172.4-77.3 172.4-172.4s-77.4-172.3-172.4-172.3z"
          fill="#ec407a" p-id="3163"></path>
    <path d="M520.3 735.6c-157.1 0-284.9-127.8-284.9-284.9s127.8-284.9 284.9-284.9c157.1 0 284.9 127.8 284.9 284.9S677.4 735.6 520.3 735.6z m0-529.9c-135.1 0-245 109.9-245 245s109.9 245 245 245 245-109.9 245-245-109.9-245-245-245z"
          fill="#ec407a" p-id="3164"></path>
</svg>
